<svg version="1.1" id="Layer_1" xmlns="http://www.w3.org/2000/svg" xmlns:xlink="http://www.w3.org/1999/xlink" x="0px" y="0px"
	 width="100%" viewBox="0 0 500 500" enable-background="new 0 0 500 500" xml:space="preserve">
<path fill="#000000" opacity="1.000000" stroke="none" 
	d="
M220.000000,501.000000 
	C146.666687,501.000000 73.833366,501.000000 1.000039,501.000000 
	C1.000026,334.333405 1.000026,167.666779 1.000013,1.000129 
	C167.666565,1.000086 334.333130,1.000086 500.999756,1.000043 
	C500.999847,167.666534 500.999847,334.333069 500.999939,500.999817 
	C407.500000,501.000000 314.000000,501.000000 220.000000,501.000000 
M312.359406,168.002945 
	C309.467560,169.758316 306.086487,171.027496 303.771820,173.356476 
	C295.480682,181.698959 287.568817,190.417526 279.478668,198.960861 
	C272.244568,206.600159 264.977997,214.208847 257.696289,221.802795 
	C255.573990,224.016113 255.536560,226.018951 257.708618,228.287888 
	C262.067749,232.841370 266.265289,237.549194 270.594025,242.132385 
	C271.910034,243.525772 273.437500,244.719482 276.013794,247.033829 
	C280.189728,242.313370 283.959595,237.909821 287.882141,233.646744 
	C296.708801,224.053833 305.590027,214.510773 314.488281,204.984116 
	C324.442047,194.327438 334.500702,183.767212 344.306152,172.976410 
	C345.132446,172.067108 344.387421,169.729965 343.885162,167.274796 
	C335.133820,167.185318 326.382477,167.049133 317.631134,167.051178 
	C316.128815,167.051529 314.626617,167.640762 312.359406,168.002945 
M188.592957,167.174133 
	C179.844940,167.130692 171.096786,167.050507 162.349121,167.088135 
	C161.195602,167.093094 160.044678,167.699631 158.326981,168.366837 
	C158.160690,169.514786 157.419662,171.147629 157.916306,171.736252 
	C163.349976,178.176239 168.806595,184.614456 174.597900,190.730347 
	C180.740921,197.217682 187.404968,203.210770 193.567719,209.680481 
	C204.185654,220.827240 214.770233,232.017014 225.000961,243.516006 
	C229.263062,248.306458 235.122971,252.414139 235.032471,260.923279 
	C235.021027,284.304565 234.988068,307.685883 235.042740,331.067017 
	C235.046738,332.771057 235.686249,334.473633 236.515686,336.524811 
	C246.824585,330.950256 257.183624,325.464630 267.390228,319.708618 
	C268.983826,318.809906 269.883057,316.679932 271.497162,314.822906 
	C271.749725,314.581665 271.874023,314.286438 271.943329,313.303162 
	C271.965027,312.878265 271.986725,312.453339 272.010956,311.085114 
	C272.008911,293.039856 272.006897,274.994568 271.974518,256.208405 
	C268.216919,250.857651 264.972778,245.040604 260.611298,240.238297 
	C243.354813,221.237503 225.896210,202.413620 208.186356,183.835068 
	C202.472107,177.840515 197.916168,170.163467 188.592957,167.174133 
M246.435791,217.007721 
	C247.639404,218.009857 248.843018,219.011978 250.248123,220.181870 
	C251.729065,218.207977 252.631699,216.564438 253.937653,215.357208 
	C256.544159,212.947800 255.979416,210.677933 253.918030,208.482620 
	C242.323044,196.134308 230.800797,183.713837 218.997742,171.566711 
	C214.357758,166.791473 208.345490,167.479950 201.587204,168.698654 
	C216.768005,185.052231 231.362793,200.774506 246.435791,217.007721 
z"/>
<path fill="#050505" opacity="1.000000" stroke="none" 
	d="
M271.103363,315.119324 
	C269.883057,316.679932 268.983826,318.809906 267.390228,319.708618 
	C257.183624,325.464630 246.824585,330.950256 236.303757,335.867767 
	C236.054489,312.029266 236.039825,288.847748 235.937546,265.666565 
	C235.929184,263.770844 235.323441,261.877777 234.995285,259.983459 
	C235.122971,252.414139 229.263062,248.306458 225.000961,243.516006 
	C214.770233,232.017014 204.185654,220.827240 193.567719,209.680481 
	C187.404968,203.210770 180.740921,197.217682 174.597900,190.730347 
	C168.806595,184.614456 163.349976,178.176239 157.916306,171.736252 
	C157.419662,171.147629 158.160690,169.514786 159.084961,168.219055 
	C169.555893,168.032532 179.268845,167.993790 188.981812,167.955032 
	C197.916168,170.163467 202.472107,177.840515 208.186356,183.835068 
	C225.896210,202.413620 243.354813,221.237503 260.611298,240.238297 
	C264.972778,245.040604 268.216919,250.857651 271.723206,256.905579 
	C271.312927,258.407288 271.016724,259.211639 271.015350,260.016479 
	C270.988342,276.111298 270.973053,292.206268 271.039215,308.300842 
	C271.044312,309.544678 271.670776,310.785980 272.008423,312.028442 
	C271.986725,312.453339 271.965027,312.878265 271.719086,313.772461 
	C271.265564,314.490204 271.135071,314.782715 271.103363,315.119324 
z"/>
<path fill="#070707" opacity="1.000000" stroke="none" 
	d="
M344.372406,168.056183 
	C344.387421,169.729965 345.132446,172.067108 344.306152,172.976410 
	C334.500702,183.767212 324.442047,194.327438 314.488281,204.984116 
	C305.590027,214.510773 296.708801,224.053833 287.882141,233.646744 
	C283.959595,237.909821 280.189728,242.313370 276.013794,247.033829 
	C273.437500,244.719482 271.910034,243.525772 270.594025,242.132385 
	C266.265289,237.549194 262.067749,232.841370 257.708618,228.287888 
	C255.536560,226.018951 255.573990,224.016113 257.696289,221.802795 
	C264.977997,214.208847 272.244568,206.600159 279.478668,198.960861 
	C287.568817,190.417526 295.480682,181.698959 303.771820,173.356476 
	C306.086487,171.027496 309.467560,169.758316 313.200989,168.022202 
	C324.152527,168.046371 334.262451,168.051270 344.372406,168.056183 
z"/>
<path fill="#0C0C0C" opacity="1.000000" stroke="none" 
	d="
M246.196686,216.752258 
	C231.362793,200.774506 216.768005,185.052231 201.587204,168.698654 
	C208.345490,167.479950 214.357758,166.791473 218.997742,171.566711 
	C230.800797,183.713837 242.323044,196.134308 253.918030,208.482620 
	C255.979416,210.677933 256.544159,212.947800 253.937653,215.357208 
	C252.631699,216.564438 251.729065,218.207977 250.248123,220.181870 
	C248.843018,219.011978 247.639404,218.009857 246.196686,216.752258 
z"/>
<path fill="#484848" opacity="1.000000" stroke="none" 
	d="
M235.013885,260.453369 
	C235.323441,261.877777 235.929184,263.770844 235.937546,265.666565 
	C236.039825,288.847748 236.054489,312.029266 236.061066,335.693787 
	C235.686249,334.473633 235.046738,332.771057 235.042740,331.067017 
	C234.988068,307.685883 235.021027,284.304565 235.013885,260.453369 
z"/>
<path fill="#0C0C0C" opacity="1.000000" stroke="none" 
	d="
M272.009705,311.556763 
	C271.670776,310.785980 271.044312,309.544678 271.039215,308.300842 
	C270.973053,292.206268 270.988342,276.111298 271.015350,260.016479 
	C271.016724,259.211639 271.312927,258.407288 271.738373,257.276001 
	C272.006897,274.994568 272.008911,293.039856 272.009705,311.556763 
z"/>
<path fill="#D2D2D2" opacity="1.000000" stroke="none" 
	d="
M344.128784,167.665497 
	C334.262451,168.051270 324.152527,168.046371 313.583466,167.999695 
	C314.626617,167.640762 316.128815,167.051529 317.631134,167.051178 
	C326.382477,167.049133 335.133820,167.185318 344.128784,167.665497 
z"/>
<path fill="#D2D2D2" opacity="1.000000" stroke="none" 
	d="
M188.787384,167.564575 
	C179.268845,167.993790 169.555893,168.032532 159.367737,168.049408 
	C160.044678,167.699631 161.195602,167.093094 162.349121,167.088135 
	C171.096786,167.050507 179.844940,167.130692 188.787384,167.564575 
z"/>
<path fill="#0C0C0C" opacity="1.000000" stroke="none" 
	d="
M271.300262,314.971130 
	C271.135071,314.782715 271.265564,314.490204 271.682495,314.089539 
	C271.874023,314.286438 271.749725,314.581665 271.300262,314.971130 
z"/>
</svg>