<?xml version="1.0" encoding="UTF-8"?>
<svg version="1.1" xmlns="http://www.w3.org/2000/svg" width="500" height="500">
<path d="M0 0 C2.06764084 -0.00963262 4.13425581 -0.04061916 6.20166016 -0.07226562 C13.33494315 -0.10015725 19.01777709 0.08818111 25.47119141 3.24023438 C25.47119141 3.90023437 25.47119141 4.56023437 25.47119141 5.24023438 C26.13119141 5.24023438 26.79119141 5.24023438 27.47119141 5.24023438 C27.47119141 5.90023437 27.47119141 6.56023437 27.47119141 7.24023438 C28.13119141 7.24023438 28.79119141 7.24023438 29.47119141 7.24023438 C31.12744141 8.84960938 31.12744141 8.84960938 32.97119141 10.99023438 C33.57962891 11.68632812 34.18806641 12.38242188 34.81494141 13.09960938 C36.35096103 15.08484229 37.443588 16.95895482 38.47119141 19.24023438 C39.13119141 19.24023438 39.79119141 19.24023438 40.47119141 19.24023438 C40.47119141 19.90023437 40.47119141 20.56023437 40.47119141 21.24023438 C41.13119141 21.24023438 41.79119141 21.24023438 42.47119141 21.24023438 C44.12744141 22.84960938 44.12744141 22.84960938 45.97119141 24.99023438 C46.57962891 25.68632812 47.18806641 26.38242188 47.81494141 27.09960938 C49.35096103 29.08484229 50.443588 30.95895482 51.47119141 33.24023438 C52.13119141 33.24023438 52.79119141 33.24023438 53.47119141 33.24023438 C53.47119141 33.90023437 53.47119141 34.56023437 53.47119141 35.24023438 C54.13119141 35.24023438 54.79119141 35.24023438 55.47119141 35.24023438 C55.47119141 35.90023437 55.47119141 36.56023437 55.47119141 37.24023438 C56.13119141 37.24023438 56.79119141 37.24023438 57.47119141 37.24023438 C58.97900391 38.70117187 58.97900391 38.70117187 60.59619141 40.61523438 C61.13501953 41.24171875 61.67384766 41.86820313 62.22900391 42.51367188 C63.47119141 44.24023438 63.47119141 44.24023438 63.47119141 46.24023438 C64.95619141 46.73523438 64.95619141 46.73523438 66.47119141 47.24023438 C68.08447266 48.87695313 68.08447266 48.87695313 69.78369141 50.92773438 C72.05879806 53.62397779 74.36339311 56.17247179 76.90869141 58.61523438 C79.47119141 61.24023438 79.47119141 61.24023438 79.47119141 63.24023438 C80.13119141 63.24023438 80.79119141 63.24023438 81.47119141 63.24023438 C81.47119141 63.90023437 81.47119141 64.56023437 81.47119141 65.24023438 C82.13119141 65.24023438 82.79119141 65.24023438 83.47119141 65.24023438 C84.98681641 66.74414063 84.98681641 66.74414063 86.72119141 68.80273438 C87.64351562 69.89134766 87.64351562 69.89134766 88.58447266 71.00195312 C89.51839844 72.10990234 89.51839844 72.10990234 90.47119141 73.24023438 C91.06287109 73.90667969 91.65455078 74.573125 92.26416016 75.25976562 C92.80685547 75.87207031 93.34955078 76.484375 93.90869141 77.11523438 C94.40240234 77.66953125 94.89611328 78.22382813 95.40478516 78.79492188 C96.47119141 80.24023438 96.47119141 80.24023438 96.47119141 82.24023438 C97.13119141 82.24023438 97.79119141 82.24023438 98.47119141 82.24023438 C100.55656796 85.68357074 100.76418447 88.46657132 100.85693359 92.45825195 C100.88905945 93.71668411 100.9211853 94.97511627 100.95428467 96.27168274 C100.97725977 97.64268271 100.99847684 99.0137131 101.01806641 100.38476562 C101.02871376 101.07844427 101.03936111 101.77212292 101.05033112 102.48682213 C101.10368495 106.15824323 101.14246913 109.82953091 101.17138672 113.5012207 C101.19806803 116.53142072 101.25376197 119.5589265 101.33544922 122.58813477 C101.43435038 126.25654451 101.4836516 129.92251364 101.49784088 133.59219933 C101.51122313 134.98501995 101.54156161 136.37779046 101.5896225 137.76984596 C101.9422945 148.60220801 101.9422945 148.60220801 98.36071777 152.59017944 C95.80046157 154.41695507 93.29077398 155.85347384 90.47119141 157.24023438 C88.69883326 158.23752937 86.92780525 159.23719554 85.15869141 160.24023438 C84.25505859 160.71589844 83.35142578 161.1915625 82.42041016 161.68164062 C80.25965255 162.82355093 78.11894672 164.00362279 75.99072266 165.20507812 C75.40524658 165.53314453 74.81977051 165.86121094 74.21655273 166.19921875 C72.54889942 167.13416832 70.88494979 168.07571491 69.22119141 169.01757812 C66.47119141 170.24023438 66.47119141 170.24023438 63.47119141 169.24023438 C63.46310455 168.28889618 63.4550177 167.33755798 63.44668579 166.35739136 C63.36912716 157.38229479 63.28136339 148.40734801 63.18366432 139.43244743 C63.13376536 134.81860218 63.08743478 130.20477912 63.04931641 125.59082031 C63.01238272 121.13626759 62.96600089 116.6819034 62.9131279 112.22751236 C62.89462687 110.52994222 62.87950313 108.83233172 62.86784744 107.13470078 C62.85091132 104.75285375 62.82185913 102.37143447 62.79003906 99.98974609 C62.78787888 99.29131088 62.78571869 98.59287567 62.78349304 97.87327576 C62.67935761 91.7526771 60.77167726 86.82712858 58.47119141 81.24023438 C57.81119141 81.24023438 57.15119141 81.24023438 56.47119141 81.24023438 C56.47119141 80.58023438 56.47119141 79.92023438 56.47119141 79.24023438 C55.81119141 79.24023438 55.15119141 79.24023438 54.47119141 79.24023438 C54.47119141 78.58023438 54.47119141 77.92023438 54.47119141 77.24023438 C53.81119141 77.24023438 53.15119141 77.24023438 52.47119141 77.24023438 C50.99072266 75.73632812 50.99072266 75.73632812 49.28369141 73.67773438 C46.28441647 70.13027264 43.13124008 66.87500565 39.75634766 63.68554688 C38.47119141 62.24023438 38.47119141 62.24023438 38.47119141 60.24023438 C37.81119141 60.24023438 37.15119141 60.24023438 36.47119141 60.24023438 C36.47119141 59.58023438 36.47119141 58.92023438 36.47119141 58.24023438 C35.81119141 58.24023438 35.15119141 58.24023438 34.47119141 58.24023438 C32.77978516 56.59570312 32.77978516 56.59570312 30.90869141 54.42773438 C29.97863281 53.36619141 29.97863281 53.36619141 29.02978516 52.28320312 C27.47119141 50.24023438 27.47119141 50.24023438 26.47119141 47.24023438 C25.1558573 46.53872285 23.82001549 45.87497512 22.47119141 45.24023438 C20.72119141 43.74023438 20.72119141 43.74023438 19.47119141 42.24023438 C19.47119141 41.58023438 19.47119141 40.92023438 19.47119141 40.24023438 C18.81119141 40.24023438 18.15119141 40.24023438 17.47119141 40.24023438 C15.81494141 38.63085938 15.81494141 38.63085938 13.97119141 36.49023438 C13.36275391 35.79414063 12.75431641 35.09804687 12.12744141 34.38085938 C10.47119141 32.24023438 10.47119141 32.24023438 9.50244141 30.09960938 C8.62294339 28.09565419 8.62294339 28.09565419 6.62036133 27.3347168 C4.24538697 26.12524161 2.86696724 24.81144915 1.05322266 22.86914062 C0.13186523 21.88397461 0.13186523 21.88397461 -0.80810547 20.87890625 C-1.4378125 20.19376953 -2.06751953 19.50863281 -2.71630859 18.80273438 C-3.35761719 18.12146484 -3.99892578 17.44019531 -4.65966797 16.73828125 C-9.39954606 11.62802198 -9.39954606 11.62802198 -10.52880859 8.24023438 C-11.18880859 8.24023438 -11.84880859 8.24023438 -12.52880859 8.24023438 C-12.52880859 7.58023438 -12.52880859 6.92023438 -12.52880859 6.24023438 C-13.18880859 6.24023438 -13.84880859 6.24023438 -14.52880859 6.24023438 C-14.52880859 4.59023437 -14.52880859 2.94023437 -14.52880859 1.24023438 C-10.27030778 -0.88901603 -4.68366847 0.01319653 0 0 Z " fill="#0B0B0B" transform="translate(170.52880859375,165.759765625)"/>
<path d="M0 0 C2.15251822 0.03148107 4.30430433 0.04101192 6.45703125 0.046875 C16.93306314 0.11692219 16.93306314 0.11692219 19.26171875 1.28125 C18.97392772 7.28888775 16.45685844 9.68409424 12.26171875 13.53125 C8.27544918 17.02477207 8.27544918 17.02477207 5.26171875 21.28125 C4.60171875 21.28125 3.94171875 21.28125 3.26171875 21.28125 C2.60171875 22.60125 1.94171875 23.92125 1.26171875 25.28125 C0.60171875 25.28125 -0.05828125 25.28125 -0.73828125 25.28125 C-0.73828125 25.94125 -0.73828125 26.60125 -0.73828125 27.28125 C-1.39828125 27.28125 -2.05828125 27.28125 -2.73828125 27.28125 C-2.98449219 27.85617188 -3.23070312 28.43109375 -3.484375 29.0234375 C-4.93621178 31.63764827 -6.64115674 33.34461208 -8.80078125 35.40625 C-11.65400058 38.0603 -11.65400058 38.0603 -13.73828125 41.28125 C-14.39828125 41.28125 -15.05828125 41.28125 -15.73828125 41.28125 C-15.73828125 41.94125 -15.73828125 42.60125 -15.73828125 43.28125 C-16.39828125 43.28125 -17.05828125 43.28125 -17.73828125 43.28125 C-17.73828125 43.94125 -17.73828125 44.60125 -17.73828125 45.28125 C-18.39828125 45.28125 -19.05828125 45.28125 -19.73828125 45.28125 C-20.1403479 46.17336182 -20.1403479 46.17336182 -20.55053711 47.08349609 C-21.74807824 49.29937796 -22.94147108 50.70204528 -24.7421875 52.4453125 C-25.31775391 53.00992188 -25.89332031 53.57453125 -26.48632812 54.15625 C-27.08509766 54.73375 -27.68386719 55.31125 -28.30078125 55.90625 C-29.49177509 57.06285151 -30.6806813 58.22160778 -31.8671875 59.3828125 C-32.3938501 59.89150879 -32.9205127 60.40020508 -33.46313477 60.92431641 C-34.85470295 62.27525105 -34.85470295 62.27525105 -35.73828125 64.28125 C-36.39828125 64.28125 -37.05828125 64.28125 -37.73828125 64.28125 C-37.97417969 64.84585938 -38.21007812 65.41046875 -38.453125 65.9921875 C-40.03063067 68.80196963 -41.97879411 70.67744051 -44.30078125 72.90625 C-47.42870179 75.79195681 -47.42870179 75.79195681 -49.73828125 79.28125 C-53.10765573 78.70133587 -54.70380552 77.67775321 -57.05078125 75.21875 C-57.65148437 74.59226562 -58.2521875 73.96578125 -58.87109375 73.3203125 C-61.35094639 70.6121889 -63.77234756 67.85928519 -66.15625 65.06640625 C-67.81457966 63.12766558 -67.81457966 63.12766558 -70.23828125 61.03125 C-71.73828125 59.28125 -71.73828125 59.28125 -71.64453125 57.4921875 C-70.34082724 54.31159926 -68.2161193 52.51441973 -65.73828125 50.15625 C-62.2977534 47.0477214 -62.2977534 47.0477214 -59.73828125 43.28125 C-59.07828125 43.28125 -58.41828125 43.28125 -57.73828125 43.28125 C-57.73828125 42.62125 -57.73828125 41.96125 -57.73828125 41.28125 C-57.07828125 41.28125 -56.41828125 41.28125 -55.73828125 41.28125 C-55.73828125 40.62125 -55.73828125 39.96125 -55.73828125 39.28125 C-55.07828125 39.28125 -54.41828125 39.28125 -53.73828125 39.28125 C-53.50496094 38.71921875 -53.27164062 38.1571875 -53.03125 37.578125 C-51.41891049 34.71390858 -49.41892505 32.80872979 -47.05078125 30.53125 C-42.15716161 25.73634892 -37.56093229 20.7945497 -33.26953125 15.453125 C-32.12815782 14.0330441 -30.93801865 12.65237845 -29.73828125 11.28125 C-29.07828125 11.28125 -28.41828125 11.28125 -27.73828125 11.28125 C-27.73828125 10.62125 -27.73828125 9.96125 -27.73828125 9.28125 C-27.07828125 9.28125 -26.41828125 9.28125 -25.73828125 9.28125 C-25.73828125 8.62125 -25.73828125 7.96125 -25.73828125 7.28125 C-25.07828125 7.28125 -24.41828125 7.28125 -23.73828125 7.28125 C-23.73828125 6.62125 -23.73828125 5.96125 -23.73828125 5.28125 C-23.07828125 5.28125 -22.41828125 5.28125 -21.73828125 5.28125 C-21.73828125 4.62125 -21.73828125 3.96125 -21.73828125 3.28125 C-14.64330403 -0.22016733 -7.76128301 -0.11476943 0 0 Z " fill="#0E0E0E" transform="translate(325.73828125,165.71875)"/>
<path d="M0 0 C7.11393727 -0.38647144 12.99320833 -0.33158953 18.76171875 4.46484375 C20.4375 6.0625 20.4375 6.0625 23 9 C23 9.66 23 10.32 23 11 C23.66 11 24.32 11 25 11 C25 11.66 25 12.32 25 13 C25.66 13 26.32 13 27 13 C27 13.66 27 14.32 27 15 C27.55042969 15.21269531 28.10085937 15.42539063 28.66796875 15.64453125 C31.80323557 17.46687227 33.94737887 19.99313626 36.3125 22.6875 C37.28900971 23.77985853 38.26687114 24.87101023 39.24609375 25.9609375 C39.71772949 26.48655273 40.18936523 27.01216797 40.67529297 27.55371094 C42.34415364 29.37574018 44.09522836 31.09922533 45.875 32.8125 C53.95796904 40.85642088 53.95796904 40.85642088 54.0625 46.1875 C52.88233806 49.31145807 51.53987556 50.86978179 49 53 C45.45566346 51.58226538 44.66193881 50.32387762 43 47 C40.9664052 45.73195434 40.9664052 45.73195434 39 45 C39 44.34 39 43.68 39 43 C38.360625 42.731875 37.72125 42.46375 37.0625 42.1875 C35 41 35 41 34 38 C33.34 38 32.68 38 32 38 C32 37.34 32 36.68 32 36 C31.34 36 30.68 36 30 36 C28.4140625 34.42578125 28.4140625 34.42578125 26.625 32.3125 C26.00109375 31.5803125 25.3771875 30.848125 24.734375 30.09375 C23.42780323 28.51644714 22.14535 26.91911912 20.875 25.3125 C18.13886963 21.9379392 15.02625068 18.98994014 11.90234375 15.9765625 C10.80599609 14.90535156 10.80599609 14.90535156 9.6875 13.8125 C8.99011719 13.13832031 8.29273438 12.46414062 7.57421875 11.76953125 C6 10 6 10 6 8 C5.34 8 4.68 8 4 8 C4 7.34 4 6.68 4 6 C3.34 6 2.68 6 2 6 C0 3 0 3 0 0 Z " fill="#202020" transform="translate(201,166)"/>
<path d="M0 0 C2.06764084 -0.00963262 4.13425581 -0.04061916 6.20166016 -0.07226562 C13.33494315 -0.10015725 19.01777709 0.08818111 25.47119141 3.24023438 C25.47119141 3.90023437 25.47119141 4.56023437 25.47119141 5.24023438 C24.48119141 5.57023438 23.49119141 5.90023437 22.47119141 6.24023438 C21.81119141 4.92023438 21.15119141 3.60023438 20.47119141 2.24023438 C9.25119141 2.24023438 -1.96880859 2.24023438 -13.52880859 2.24023438 C-13.19880859 3.56023437 -12.86880859 4.88023437 -12.52880859 6.24023438 C-13.18880859 6.24023438 -13.84880859 6.24023438 -14.52880859 6.24023438 C-14.52880859 4.59023437 -14.52880859 2.94023437 -14.52880859 1.24023438 C-10.27030778 -0.88901603 -4.68366847 0.01319653 0 0 Z " fill="#767676" transform="translate(170.52880859375,165.759765625)"/>
<path d="M0 0 C0.99 0.33 1.98 0.66 3 1 C0.63019694 6.73741794 0.63019694 6.73741794 -2.25 7.9375 C-3.1575 8.288125 -4.065 8.63875 -5 9 C-7.47757272 11.19942526 -9.74759935 13.57234051 -12 16 C-12 13 -12 13 -10.06640625 10.80859375 C-9.24011719 10.02613281 -8.41382813 9.24367187 -7.5625 8.4375 C-4.36158822 5.53104307 -4.36158822 5.53104307 -2 2 C-1.34 2 -0.68 2 0 2 C0 1.34 0 0.68 0 0 Z " fill="#6B6B6C" transform="translate(298,175)"/>
<path d="M0 0 C0.66 1.32 1.32 2.64 2 4 C1.01 4.495 1.01 4.495 0 5 C-0.66 4.67 -1.32 4.34 -2 4 C-2.33 4.99 -2.66 5.98 -3 7 C-4.28817344 8.37701298 -5.62804426 9.70644173 -7 11 C-8.051875 12.11375 -8.051875 12.11375 -9.125 13.25 C-11 15 -11 15 -13 15 C-13 14.34 -13 13.68 -13 13 C-12.34 13 -11.68 13 -11 13 C-11 12.34 -11 11.68 -11 11 C-10.34 11 -9.68 11 -9 11 C-8.74476563 10.41734375 -8.48953125 9.8346875 -8.2265625 9.234375 C-6.88258913 6.78611777 -5.38189704 5.18256752 -3.375 3.25 C-2.74335938 2.63640625 -2.11171875 2.0228125 -1.4609375 1.390625 C-0.73777344 0.70226562 -0.73777344 0.70226562 0 0 Z " fill="#6F6F6F" transform="translate(281,194)"/>
<path d="M0 0 C5.73842251 -0.20413361 10.60539047 -0.27141454 16 2 C13.00468461 2.99843846 11.82744268 3.00732761 8.8125 2.5625 C7.554375 2.376875 6.29625 2.19125 5 2 C4.67 3.32 4.34 4.64 4 6 C3.34 6 2.68 6 2 6 C0 3 0 3 0 0 Z " fill="#767676" transform="translate(201,166)"/>
<path d="M0 0 C0 0.99 0 1.98 0 3 C0.46903802 5.21117926 0.98660921 6.97321842 2 9 C1.34 9.66 0.68 10.32 0 11 C-2.0625 9.25 -2.0625 9.25 -4 7 C-3.91773794 4.28535198 -3.23959034 3.26834119 -1.4375 1.25 C-0.963125 0.8375 -0.48875 0.425 0 0 Z " fill="#696969" transform="translate(258,218)"/>
<path d="M0 0 C1.65 0.33 3.3 0.66 5 1 C3.02 3.31 1.04 5.62 -1 8 C-2 4 -2 4 -1.0625 1.75 C-0.711875 1.1725 -0.36125 0.595 0 0 Z " fill="#313131" transform="translate(293,219)"/>
<path d="M0 0 C0.66 0.33 1.32 0.66 2 1 C1.67 2.65 1.34 4.3 1 6 C-1.31 6.33 -3.62 6.66 -6 7 C-6 6.34 -6 5.68 -6 5 C-5.34 5 -4.68 5 -4 5 C-4 4.34 -4 3.68 -4 3 C-3.34 3 -2.68 3 -2 3 C-2 2.34 -2 1.68 -2 1 C-1.34 0.67 -0.68 0.34 0 0 Z " fill="#494949" transform="translate(306,168)"/>
<path d="M0 0 C2 1.375 2 1.375 4 3 C4 3.66 4 4.32 4 5 C4.66 5 5.32 5 6 5 C6 5.66 6 6.32 6 7 C6.66 7 7.32 7 8 7 C8 7.66 8 8.32 8 9 C7.01 9 6.02 9 5 9 C5 8.34 5 7.68 5 7 C4.01 6.67 3.02 6.34 2 6 C0.8125 2.9375 0.8125 2.9375 0 0 Z " fill="#7C7C7C" transform="translate(246,224)"/>
<path d="M0 0 C0.66 1.32 1.32 2.64 2 4 C1.01 4.495 1.01 4.495 0 5 C-0.66 4.67 -1.32 4.34 -2 4 C-2.33 4.99 -2.66 5.98 -3 7 C-3.33 6.01 -3.66 5.02 -4 4 C-2.68 2.68 -1.36 1.36 0 0 Z " fill="#464646" transform="translate(281,194)"/>
<path d="M0 0 C5.75 0.875 5.75 0.875 8 2 C8 2.66 8 3.32 8 4 C7.01 4.33 6.02 4.66 5 5 C4.731875 4.360625 4.46375 3.72125 4.1875 3.0625 C3.11332248 0.66868314 3.11332248 0.66868314 0 0 Z " fill="#636363" transform="translate(188,167)"/>
<path d="" fill="#FFFFFF" transform="translate(0,0)"/>
<path d="" fill="#FFFFFF" transform="translate(0,0)"/>
<path d="" fill="#FFFFFF" transform="translate(0,0)"/>
<path d="" fill="#FFFFFF" transform="translate(0,0)"/>
<path d="" fill="#FFFFFF" transform="translate(0,0)"/>
<path d="" fill="#FFFFFF" transform="translate(0,0)"/>
<path d="" fill="#FFFFFF" transform="translate(0,0)"/>
<path d="" fill="#FFFFFF" transform="translate(0,0)"/>
<path d="" fill="#FFFFFF" transform="translate(0,0)"/>
<path d="" fill="#FFFFFF" transform="translate(0,0)"/>
<path d="" fill="#FFFFFF" transform="translate(0,0)"/>
<path d="" fill="#FFFFFF" transform="translate(0,0)"/>
<path d="" fill="#FFFFFF" transform="translate(0,0)"/>
<path d="" fill="#FFFFFF" transform="translate(0,0)"/>
<path d="" fill="#FFFFFF" transform="translate(0,0)"/>
<path d="" fill="#FFFFFF" transform="translate(0,0)"/>
<path d="" fill="#FFFFFF" transform="translate(0,0)"/>
<path d="" fill="#FFFFFF" transform="translate(0,0)"/>
<path d="" fill="#FFFFFF" transform="translate(0,0)"/>
<path d="" fill="#FFFFFF" transform="translate(0,0)"/>
<path d="" fill="#FFFFFF" transform="translate(0,0)"/>
<path d="" fill="#FFFFFF" transform="translate(0,0)"/>
<path d="" fill="#FFFFFF" transform="translate(0,0)"/>
<path d="" fill="#FFFFFF" transform="translate(0,0)"/>
<path d="" fill="#FFFFFF" transform="translate(0,0)"/>
<path d="" fill="#FFFFFF" transform="translate(0,0)"/>
<path d="" fill="#FFFFFF" transform="translate(0,0)"/>
<path d="" fill="#FFFFFF" transform="translate(0,0)"/>
<path d="" fill="#FFFFFF" transform="translate(0,0)"/>
<path d="" fill="#FFFFFF" transform="translate(0,0)"/>
<path d="" fill="#FFFFFF" transform="translate(0,0)"/>
<path d="" fill="#FFFFFF" transform="translate(0,0)"/>
<path d="" fill="#FFFFFF" transform="translate(0,0)"/>
<path d="" fill="#FFFFFF" transform="translate(0,0)"/>
<path d="" fill="#FFFFFF" transform="translate(0,0)"/>
<path d="" fill="#FFFFFF" transform="translate(0,0)"/>
<path d="" fill="#FFFFFF" transform="translate(0,0)"/>
<path d="" fill="#FFFFFF" transform="translate(0,0)"/>
<path d="" fill="#FFFFFF" transform="translate(0,0)"/>
<path d="" fill="#FFFFFF" transform="translate(0,0)"/>
<path d="" fill="#FFFFFF" transform="translate(0,0)"/>
<path d="" fill="#FFFFFF" transform="translate(0,0)"/>
<path d="" fill="#FFFFFF" transform="translate(0,0)"/>
<path d="" fill="#FFFFFF" transform="translate(0,0)"/>
<path d="" fill="#FFFFFF" transform="translate(0,0)"/>
<path d="" fill="#00FFFF" transform="translate(0,0)"/>
<path d="" fill="#FFFFFF" transform="translate(0,0)"/>
<path d="" fill="#FFFFFF" transform="translate(0,0)"/>
<path d="" fill="#FFFFFF" transform="translate(0,0)"/>
<path d="" fill="#FFFFFF" transform="translate(0,0)"/>
<path d="" fill="#FFFFFF" transform="translate(0,0)"/>
<path d="" fill="#FFFFFF" transform="translate(0,0)"/>
<path d="" fill="#FFFFFF" transform="translate(0,0)"/>
<path d="" fill="#FFFFFF" transform="translate(0,0)"/>
<path d="" fill="#FFFFFF" transform="translate(0,0)"/>
<path d="" fill="#FFFFFF" transform="translate(0,0)"/>
<path d="" fill="#FFFFFF" transform="translate(0,0)"/>
<path d="" fill="#FFFFFF" transform="translate(0,0)"/>
<path d="" fill="#FFFFFF" transform="translate(0,0)"/>
<path d="" fill="#FFFFFF" transform="translate(0,0)"/>
<path d="" fill="#FFFFFF" transform="translate(0,0)"/>
<path d="" fill="#FFFFFF" transform="translate(0,0)"/>
<path d="" fill="#FFFFFF" transform="translate(0,0)"/>
<path d="" fill="#FFFFFF" transform="translate(0,0)"/>
<path d="" fill="#FFFFFF" transform="translate(0,0)"/>
<path d="" fill="#FFFFFF" transform="translate(0,0)"/>
<path d="" fill="#FFFFFF" transform="translate(0,0)"/>
<path d="" fill="#FFFFFF" transform="translate(0,0)"/>
<path d="" fill="#FFFFFF" transform="translate(0,0)"/>
<path d="" fill="#FFFFFF" transform="translate(0,0)"/>
<path d="" fill="#FFFFFF" transform="translate(0,0)"/>
<path d="" fill="#FFFFFF" transform="translate(0,0)"/>
</svg>
